<?xml version="1.0" standalone="no"?><!DOCTYPE svg PUBLIC "-//W3C//DTD SVG 1.1//EN" "http://www.w3.org/Graphics/SVG/1.1/DTD/svg11.dtd"><svg t="1594735357160" class="icon" viewBox="0 0 1024 1024" version="1.1" xmlns="http://www.w3.org/2000/svg" p-id="3089" xmlns:xlink="http://www.w3.org/1999/xlink" width="200" height="200"><defs><style type="text/css"></style></defs><path d="M1007.34825 744.863559 1007.34825 18.535145 20.41854 18.535145l0 986.92971 986.92971 0L1007.34825 896.90844C887.670543 844.914252 767.73087 793.493116 648.592446 740.285287c-17.8526-7.968485-25.849738-3.659343-36.802184 9.241478-48.287773 56.879452-106.322537 101.267405-176.661535 127.015835-30.175253 11.042497-62.517869 16.169261-93.875041 23.985274-15.688307 0-31.374568 0-47.061852 0-17.534352-3.89368-35.404348-6.685259-52.55189-11.866259-71.00824-21.439288-121.075543-63.065338-132.61639-140.79056-0.517793-3.489474-2.02717-6.833639-3.074012-10.249435 0-7.236821 0-14.477736 0-21.719674 1.12666-2.77009 2.925632-5.452175 3.279696-8.308223 11.279904-91.62172 80.335676-140.720975 160.500461-154.065911 59.505255-9.909697 117.804033 0.224104 175.373193 13.638625 49.120744 11.449773 97.528244 25.976628 146.449443 39.189557 19.503193-25.52228 51.629891-105.95517 50.210565-128.804574-124.307144 0-248.780063 0-373.584534 0 0-14.171768 0-25.998117 0-40.266076 65.125253 0 129.207757 0 193.270818 0 0-23.224957 0-43.9817 0-66.680678-78.856999 0-156.376537 0-234.093573 0 0-14.286378 0-26.570145 0-40.941458 78.727039 0 156.207691 0 235.352239 0 0-30.354332-0.696872-58.632375 0.406253-86.839811 0.348947-8.928347 5.505387-17.666358 8.462742-26.493397 34.992979 0 69.989027 0 104.982006 0 0 37.179784 0 74.361615 0 113.89091 80.367399 0 157.183925 0 233.906308 0 0 14.749936 0 27.108405 0 41.050951-77.523631 0-153.851017 0-230.740198 0 0 22.87294 0 44.080961 0 66.756403 63.397912 0 125.277238 0 189.279924 0-16.425088 73.021084-43.965328 139.644457-79.116919 204.171076C795.6395 680.893618 898.943284 720.726835 1007.34825 744.863559z" p-id="3090"></path><path d="M195.952392 640.255059c-52.458769 28.075429-66.930365 90.925872-31.969109 137.045259 17.289782 22.808472 41.125653 36.677341 68.193125 44.923142 66.906829 20.402679 129.460514 8.586562 188.92586-25.926486 46.845934-27.189246 85.48393-63.253626 119.238708-107.862613-66.566068-31.902594-131.522476-62.417585-204.453509-71.461565C286.648021 610.860589 239.746828 616.815207 195.952392 640.255059z" p-id="3091"></path></svg>